<svg xmlns="http://www.w3.org/2000/svg" width="400" height="195" viewBox="0 0 400 195" role="img">
  <style>
    .title { font: 600 16px -apple-system,BlinkMacSystemFont,Segoe UI,sans-serif; fill: #0969da; }
    .desc  { font: 400 12px -apple-system,BlinkMacSystemFont,Segoe UI,sans-serif; fill: #656d76; }
    .label { font: 600 13px -apple-system,BlinkMacSystemFont,Segoe UI,sans-serif; fill: #1f2328; }
    .num   { font: 700 22px -apple-system,BlinkMacSystemFont,Segoe UI,sans-serif; fill: #1f2328; }
    .meta  { font: 400 12px -apple-system,BlinkMacSystemFont,Segoe UI,sans-serif; fill: #656d76; }
  </style>
  <rect x="0.5" y="0.5" width="399" height="194" rx="6" ry="6"
        fill="#ffffff" stroke="#d0d7de" />
  
      <text x="22" y="32" class="title">Most Used Languages</text>
      <rect x="22" y="50" width="356" height="8" rx="4" ry="4" fill="#eaeef2" />
      <rect x="22" y="50" width="187.4693668559097" height="8" fill="#F05138" /><rect x="209.4693668559097" y="50" width="145.5816788096921" height="8" fill="#3572A5" /><rect x="355.0510456656018" y="50" width="15.2183871298084" height="8" fill="#f1e05a" /><rect x="370.2694327954102" y="50" width="5.61786560830438" height="8" fill="#89e051" /><rect x="375.88729840371457" y="50" width="2.112701596285408" height="8" fill="#701516" />
      
        <circle cx="28" cy="85" r="6" fill="#F05138" />
        <text x="42" y="90" class="label">Swift</text>
        <text x="192" y="90" class="meta" text-anchor="end">52.7%</text>
        <circle cx="218" cy="85" r="6" fill="#3572A5" />
        <text x="232" y="90" class="label">Python</text>
        <text x="382" y="90" class="meta" text-anchor="end">40.9%</text>
        <circle cx="28" cy="113" r="6" fill="#f1e05a" />
        <text x="42" y="118" class="label">JavaScript</text>
        <text x="192" y="118" class="meta" text-anchor="end">4.3%</text>
        <circle cx="218" cy="113" r="6" fill="#89e051" />
        <text x="232" y="118" class="label">Shell</text>
        <text x="382" y="118" class="meta" text-anchor="end">1.6%</text>
        <circle cx="28" cy="141" r="6" fill="#701516" />
        <text x="42" y="146" class="label">Ruby</text>
        <text x="192" y="146" class="meta" text-anchor="end">0.6%</text>
</svg>