<svg xmlns="http://www.w3.org/2000/svg" width="560" height="210" viewBox="0 0 560 210" role="img">
  <style>
    .title { font: 600 16px -apple-system,BlinkMacSystemFont,Segoe UI,sans-serif; fill: #0969da; }
    .desc  { font: 400 12px -apple-system,BlinkMacSystemFont,Segoe UI,sans-serif; fill: #656d76; }
    .label { font: 600 13px -apple-system,BlinkMacSystemFont,Segoe UI,sans-serif; fill: #1f2328; }
    .num   { font: 700 22px -apple-system,BlinkMacSystemFont,Segoe UI,sans-serif; fill: #1f2328; }
    .meta  { font: 400 12px -apple-system,BlinkMacSystemFont,Segoe UI,sans-serif; fill: #656d76; }
  </style>
  <rect x="0.5" y="0.5" width="559" height="209" rx="6" ry="6"
        fill="#ffffff" stroke="#d0d7de" />
  
    <rect x="36" y="37.5" width="9" height="9" fill="#2a1810" /><rect x="45" y="37.5" width="9" height="9" fill="#2a1810" /><rect x="108" y="37.5" width="9" height="9" fill="#2a1810" /><rect x="117" y="37.5" width="9" height="9" fill="#2a1810" /><rect x="27" y="46.5" width="9" height="9" fill="#2a1810" /><rect x="36" y="46.5" width="9" height="9" fill="#f4a5a5" /><rect x="45" y="46.5" width="9" height="9" fill="#2a1810" /><rect x="108" y="46.5" width="9" height="9" fill="#2a1810" /><rect x="117" y="46.5" width="9" height="9" fill="#f4a5a5" /><rect x="126" y="46.5" width="9" height="9" fill="#2a1810" /><rect x="27" y="55.5" width="9" height="9" fill="#2a1810" /><rect x="36" y="55.5" width="9" height="9" fill="#e89559" /><rect x="45" y="55.5" width="9" height="9" fill="#2a1810" /><rect x="108" y="55.5" width="9" height="9" fill="#2a1810" /><rect x="117" y="55.5" width="9" height="9" fill="#e89559" /><rect x="126" y="55.5" width="9" height="9" fill="#2a1810" /><rect x="18" y="64.5" width="9" height="9" fill="#2a1810" /><rect x="27" y="64.5" width="9" height="9" fill="#e89559" /><rect x="36" y="64.5" width="9" height="9" fill="#e89559" /><rect x="45" y="64.5" width="9" height="9" fill="#e89559" /><rect x="54" y="64.5" width="9" height="9" fill="#2a1810" /><rect x="63" y="64.5" width="9" height="9" fill="#2a1810" /><rect x="72" y="64.5" width="9" height="9" fill="#2a1810" /><rect x="81" y="64.5" width="9" height="9" fill="#2a1810" /><rect x="90" y="64.5" width="9" height="9" fill="#2a1810" /><rect x="99" y="64.5" width="9" height="9" fill="#2a1810" /><rect x="108" y="64.5" width="9" height="9" fill="#e89559" /><rect x="117" y="64.5" width="9" height="9" fill="#e89559" /><rect x="126" y="64.5" width="9" height="9" fill="#e89559" /><rect x="135" y="64.5" width="9" height="9" fill="#2a1810" /><rect x="18" y="73.5" width="9" height="9" fill="#2a1810" /><rect x="27" y="73.5" width="9" height="9" fill="#e89559" /><rect x="36" y="73.5" width="9" height="9" fill="#c46f2c" /><rect x="45" y="73.5" width="9" height="9" fill="#e89559" /><rect x="54" y="73.5" width="9" height="9" fill="#e89559" /><rect x="63" y="73.5" width="9" height="9" fill="#e89559" /><rect x="72" y="73.5" width="9" height="9" fill="#e89559" /><rect x="81" y="73.5" width="9" height="9" fill="#e89559" /><rect x="90" y="73.5" width="9" height="9" fill="#e89559" /><rect x="99" y="73.5" width="9" height="9" fill="#e89559" /><rect x="108" y="73.5" width="9" height="9" fill="#c46f2c" /><rect x="117" y="73.5" width="9" height="9" fill="#e89559" /><rect x="126" y="73.5" width="9" height="9" fill="#e89559" /><rect x="135" y="73.5" width="9" height="9" fill="#2a1810" /><rect x="18" y="82.5" width="9" height="9" fill="#2a1810" /><rect x="27" y="82.5" width="9" height="9" fill="#e89559" /><rect x="36" y="82.5" width="9" height="9" fill="#e89559" /><rect x="45" y="82.5" width="9" height="9" fill="#e89559" /><rect x="54" y="82.5" width="9" height="9" fill="#2a1810" /><rect x="63" y="82.5" width="9" height="9" fill="#e89559" /><rect x="72" y="82.5" width="9" height="9" fill="#e89559" /><rect x="81" y="82.5" width="9" height="9" fill="#e89559" /><rect x="90" y="82.5" width="9" height="9" fill="#e89559" /><rect x="99" y="82.5" width="9" height="9" fill="#2a1810" /><rect x="108" y="82.5" width="9" height="9" fill="#e89559" /><rect x="117" y="82.5" width="9" height="9" fill="#e89559" /><rect x="126" y="82.5" width="9" height="9" fill="#e89559" /><rect x="135" y="82.5" width="9" height="9" fill="#2a1810" /><rect x="18" y="91.5" width="9" height="9" fill="#2a1810" /><rect x="27" y="91.5" width="9" height="9" fill="#e89559" /><rect x="36" y="91.5" width="9" height="9" fill="#ffffff" /><rect x="45" y="91.5" width="9" height="9" fill="#2a1810" /><rect x="54" y="91.5" width="9" height="9" fill="#e89559" /><rect x="63" y="91.5" width="9" height="9" fill="#e89559" /><rect x="72" y="91.5" width="9" height="9" fill="#e89559" /><rect x="81" y="91.5" width="9" height="9" fill="#e89559" /><rect x="90" y="91.5" width="9" height="9" fill="#e89559" /><rect x="99" y="91.5" width="9" height="9" fill="#e89559" /><rect x="108" y="91.5" width="9" height="9" fill="#ffffff" /><rect x="117" y="91.5" width="9" height="9" fill="#2a1810" /><rect x="126" y="91.5" width="9" height="9" fill="#e89559" /><rect x="135" y="91.5" width="9" height="9" fill="#2a1810" /><rect x="18" y="100.5" width="9" height="9" fill="#2a1810" /><rect x="27" y="100.5" width="9" height="9" fill="#e89559" /><rect x="36" y="100.5" width="9" height="9" fill="#e89559" /><rect x="45" y="100.5" width="9" height="9" fill="#e89559" /><rect x="54" y="100.5" width="9" height="9" fill="#e89559" /><rect x="63" y="100.5" width="9" height="9" fill="#f4a5a5" /><rect x="72" y="100.5" width="9" height="9" fill="#f4a5a5" /><rect x="81" y="100.5" width="9" height="9" fill="#f4a5a5" /><rect x="90" y="100.5" width="9" height="9" fill="#f4a5a5" /><rect x="99" y="100.5" width="9" height="9" fill="#e89559" /><rect x="108" y="100.5" width="9" height="9" fill="#e89559" /><rect x="117" y="100.5" width="9" height="9" fill="#e89559" /><rect x="126" y="100.5" width="9" height="9" fill="#e89559" /><rect x="135" y="100.5" width="9" height="9" fill="#2a1810" /><rect x="18" y="109.5" width="9" height="9" fill="#2a1810" /><rect x="27" y="109.5" width="9" height="9" fill="#e89559" /><rect x="36" y="109.5" width="9" height="9" fill="#e89559" /><rect x="45" y="109.5" width="9" height="9" fill="#e89559" /><rect x="54" y="109.5" width="9" height="9" fill="#e89559" /><rect x="63" y="109.5" width="9" height="9" fill="#c46f2c" /><rect x="72" y="109.5" width="9" height="9" fill="#c46f2c" /><rect x="81" y="109.5" width="9" height="9" fill="#c46f2c" /><rect x="90" y="109.5" width="9" height="9" fill="#c46f2c" /><rect x="99" y="109.5" width="9" height="9" fill="#c46f2c" /><rect x="108" y="109.5" width="9" height="9" fill="#e89559" /><rect x="117" y="109.5" width="9" height="9" fill="#e89559" /><rect x="126" y="109.5" width="9" height="9" fill="#e89559" /><rect x="135" y="109.5" width="9" height="9" fill="#2a1810" /><rect x="27" y="118.5" width="9" height="9" fill="#2a1810" /><rect x="36" y="118.5" width="9" height="9" fill="#e89559" /><rect x="45" y="118.5" width="9" height="9" fill="#e89559" /><rect x="54" y="118.5" width="9" height="9" fill="#e89559" /><rect x="63" y="118.5" width="9" height="9" fill="#e89559" /><rect x="72" y="118.5" width="9" height="9" fill="#e89559" /><rect x="81" y="118.5" width="9" height="9" fill="#e89559" /><rect x="90" y="118.5" width="9" height="9" fill="#e89559" /><rect x="99" y="118.5" width="9" height="9" fill="#e89559" /><rect x="108" y="118.5" width="9" height="9" fill="#e89559" /><rect x="117" y="118.5" width="9" height="9" fill="#e89559" /><rect x="126" y="118.5" width="9" height="9" fill="#2a1810" /><rect x="36" y="127.5" width="9" height="9" fill="#2a1810" /><rect x="45" y="127.5" width="9" height="9" fill="#2a1810" /><rect x="54" y="127.5" width="9" height="9" fill="#2a1810" /><rect x="63" y="127.5" width="9" height="9" fill="#2a1810" /><rect x="72" y="127.5" width="9" height="9" fill="#2a1810" /><rect x="81" y="127.5" width="9" height="9" fill="#2a1810" /><rect x="90" y="127.5" width="9" height="9" fill="#2a1810" /><rect x="99" y="127.5" width="9" height="9" fill="#2a1810" /><rect x="108" y="127.5" width="9" height="9" fill="#2a1810" /><rect x="117" y="127.5" width="9" height="9" fill="#2a1810" /><rect x="126" y="127.5" width="9" height="9" fill="#2a1810" /><rect x="36" y="136.5" width="9" height="9" fill="#2a1810" /><rect x="45" y="136.5" width="9" height="9" fill="#f5e6c8" /><rect x="54" y="136.5" width="9" height="9" fill="#f5e6c8" /><rect x="63" y="136.5" width="9" height="9" fill="#f5e6c8" /><rect x="72" y="136.5" width="9" height="9" fill="#f5e6c8" /><rect x="81" y="136.5" width="9" height="9" fill="#f5e6c8" /><rect x="90" y="136.5" width="9" height="9" fill="#f5e6c8" /><rect x="99" y="136.5" width="9" height="9" fill="#f5e6c8" /><rect x="108" y="136.5" width="9" height="9" fill="#f5e6c8" /><rect x="117" y="136.5" width="9" height="9" fill="#f5e6c8" /><rect x="126" y="136.5" width="9" height="9" fill="#2a1810" /><rect x="36" y="145.5" width="9" height="9" fill="#2a1810" /><rect x="45" y="145.5" width="9" height="9" fill="#f5e6c8" /><rect x="54" y="145.5" width="9" height="9" fill="#3a2818" /><rect x="63" y="145.5" width="9" height="9" fill="#3a2818" /><rect x="72" y="145.5" width="9" height="9" fill="#3a2818" /><rect x="81" y="145.5" width="9" height="9" fill="#3a2818" /><rect x="90" y="145.5" width="9" height="9" fill="#3a2818" /><rect x="99" y="145.5" width="9" height="9" fill="#3a2818" /><rect x="108" y="145.5" width="9" height="9" fill="#3a2818" /><rect x="117" y="145.5" width="9" height="9" fill="#f5e6c8" /><rect x="126" y="145.5" width="9" height="9" fill="#2a1810" /><rect x="36" y="154.5" width="9" height="9" fill="#2a1810" /><rect x="45" y="154.5" width="9" height="9" fill="#f5e6c8" /><rect x="54" y="154.5" width="9" height="9" fill="#f5e6c8" /><rect x="63" y="154.5" width="9" height="9" fill="#f5e6c8" /><rect x="72" y="154.5" width="9" height="9" fill="#f5e6c8" /><rect x="81" y="154.5" width="9" height="9" fill="#f5e6c8" /><rect x="90" y="154.5" width="9" height="9" fill="#f5e6c8" /><rect x="99" y="154.5" width="9" height="9" fill="#f5e6c8" /><rect x="108" y="154.5" width="9" height="9" fill="#f5e6c8" /><rect x="117" y="154.5" width="9" height="9" fill="#f5e6c8" /><rect x="126" y="154.5" width="9" height="9" fill="#2a1810" /><rect x="36" y="163.5" width="9" height="9" fill="#2a1810" /><rect x="45" y="163.5" width="9" height="9" fill="#2a1810" /><rect x="54" y="163.5" width="9" height="9" fill="#2a1810" /><rect x="63" y="163.5" width="9" height="9" fill="#2a1810" /><rect x="72" y="163.5" width="9" height="9" fill="#2a1810" /><rect x="81" y="163.5" width="9" height="9" fill="#2a1810" /><rect x="90" y="163.5" width="9" height="9" fill="#2a1810" /><rect x="99" y="163.5" width="9" height="9" fill="#2a1810" /><rect x="108" y="163.5" width="9" height="9" fill="#2a1810" /><rect x="117" y="163.5" width="9" height="9" fill="#2a1810" /><rect x="126" y="163.5" width="9" height="9" fill="#2a1810" />
    <text x="168" y="32" class="title">awen's GitHub Stats</text>
    
        <text x="168" y="70" class="label">Public repos</text>
        <text x="348" y="70" class="num" text-anchor="end">2</text>
        <text x="363" y="70" class="label">Stars earned</text>
        <text x="543" y="70" class="num" text-anchor="end">2</text>
        <text x="168" y="112" class="label">Forks</text>
        <text x="348" y="112" class="num" text-anchor="end">0</text>
        <text x="363" y="112" class="label">Commits</text>
        <text x="543" y="112" class="num" text-anchor="end">24</text>
        <text x="168" y="154" class="label">Merged PRs</text>
        <text x="348" y="154" class="num" text-anchor="end">8</text>
        <text x="363" y="154" class="label">Contributed to</text>
        <text x="543" y="154" class="num" text-anchor="end">4</text>
</svg>