<svg xmlns="http://www.w3.org/2000/svg" width="560" height="210" viewBox="0 0 560 210" role="img">
  <style>
    .title { font: 600 16px -apple-system,BlinkMacSystemFont,Segoe UI,sans-serif; fill: #0969da; }
    .desc  { font: 400 12px -apple-system,BlinkMacSystemFont,Segoe UI,sans-serif; fill: #656d76; }
    .label { font: 600 13px -apple-system,BlinkMacSystemFont,Segoe UI,sans-serif; fill: #1f2328; }
    .num   { font: 700 22px -apple-system,BlinkMacSystemFont,Segoe UI,sans-serif; fill: #1f2328; }
    .meta  { font: 400 12px -apple-system,BlinkMacSystemFont,Segoe UI,sans-serif; fill: #656d76; }
  </style>
  <rect x="0.5" y="0.5" width="559" height="209" rx="6" ry="6"
        fill="#ffffff" stroke="#d0d7de" />
  
    <rect x="62" y="9" width="8" height="8" fill="#3a352e" /><rect x="134" y="9" width="8" height="8" fill="#3a352e" /><rect x="54" y="17" width="8" height="8" fill="#3a352e" /><rect x="62" y="17" width="8" height="8" fill="#ffffff" /><rect x="70" y="17" width="8" height="8" fill="#3a352e" /><rect x="126" y="17" width="8" height="8" fill="#3a352e" /><rect x="134" y="17" width="8" height="8" fill="#ffffff" /><rect x="142" y="17" width="8" height="8" fill="#3a352e" /><rect x="54" y="25" width="8" height="8" fill="#3a352e" /><rect x="62" y="25" width="8" height="8" fill="#e0a58a" /><rect x="70" y="25" width="8" height="8" fill="#ffffff" /><rect x="78" y="25" width="8" height="8" fill="#3a352e" /><rect x="118" y="25" width="8" height="8" fill="#3a352e" /><rect x="126" y="25" width="8" height="8" fill="#ffffff" /><rect x="134" y="25" width="8" height="8" fill="#e0a58a" /><rect x="142" y="25" width="8" height="8" fill="#3a352e" /><rect x="46" y="33" width="8" height="8" fill="#3a352e" /><rect x="54" y="33" width="96" height="8" fill="#ffffff" /><rect x="150" y="33" width="8" height="8" fill="#3a352e" /><rect x="38" y="41" width="8" height="8" fill="#3a352e" /><rect x="46" y="41" width="112" height="8" fill="#ffffff" /><rect x="158" y="41" width="8" height="8" fill="#3a352e" /><rect x="38" y="49" width="8" height="8" fill="#3a352e" /><rect x="46" y="49" width="8" height="8" fill="#ffffff" /><rect x="54" y="49" width="96" height="8" fill="#17171d" /><rect x="150" y="49" width="8" height="8" fill="#ffffff" /><rect x="158" y="49" width="8" height="8" fill="#3a352e" /><rect x="38" y="57" width="8" height="8" fill="#3a352e" /><rect x="46" y="57" width="8" height="8" fill="#ffffff" /><rect x="54" y="57" width="8" height="8" fill="#17171d" /><rect x="62" y="57" width="8" height="8" fill="#5b6b7a" /><rect x="70" y="57" width="16" height="8" fill="#3d4a57" /><rect x="86" y="57" width="8" height="8" fill="#17171d" /><rect x="94" y="57" width="16" height="8" fill="#17171d" /><rect x="110" y="57" width="8" height="8" fill="#17171d" /><rect x="118" y="57" width="8" height="8" fill="#5b6b7a" /><rect x="126" y="57" width="16" height="8" fill="#3d4a57" /><rect x="142" y="57" width="8" height="8" fill="#17171d" /><rect x="150" y="57" width="8" height="8" fill="#ffffff" /><rect x="158" y="57" width="8" height="8" fill="#3a352e" /><rect x="38" y="65" width="8" height="8" fill="#3a352e" /><rect x="46" y="65" width="8" height="8" fill="#ffffff" /><rect x="54" y="65" width="40" height="8" fill="#17171d" /><rect x="94" y="65" width="16" height="8" fill="#ffffff" /><rect x="110" y="65" width="40" height="8" fill="#17171d" /><rect x="150" y="65" width="8" height="8" fill="#ffffff" /><rect x="158" y="65" width="8" height="8" fill="#3a352e" /><rect x="30" y="73" width="8" height="8" fill="#3a352e" /><rect x="38" y="73" width="120" height="8" fill="#ffffff" /><rect x="158" y="73" width="8" height="8" fill="#3a352e" /><rect x="30" y="81" width="8" height="8" fill="#3a352e" /><rect x="38" y="81" width="120" height="8" fill="#ffffff" /><rect x="158" y="81" width="8" height="8" fill="#3a352e" /><rect x="30" y="89" width="8" height="8" fill="#3a352e" /><rect x="38" y="89" width="48" height="8" fill="#ffffff" /><rect x="86" y="89" width="32" height="8" fill="#2b2b2b" /><rect x="118" y="89" width="40" height="8" fill="#ffffff" /><rect x="158" y="89" width="8" height="8" fill="#3a352e" /><rect x="30" y="97" width="8" height="8" fill="#3a352e" /><rect x="38" y="97" width="48" height="8" fill="#ffffff" /><rect x="86" y="97" width="32" height="8" fill="#2b2b2b" /><rect x="118" y="97" width="40" height="8" fill="#ffffff" /><rect x="158" y="97" width="8" height="8" fill="#3a352e" /><rect x="30" y="105" width="8" height="8" fill="#3a352e" /><rect x="38" y="105" width="120" height="8" fill="#ffffff" /><rect x="158" y="105" width="8" height="8" fill="#3a352e" /><rect x="94" y="105" width="16" height="8" fill="#2b2b2b" /><rect x="174" y="105" width="8" height="8" fill="#3a352e" /><rect x="38" y="113" width="8" height="8" fill="#3a352e" /><rect x="46" y="113" width="104" height="8" fill="#ffffff" /><rect x="150" y="113" width="8" height="8" fill="#3a352e" /><rect x="86" y="113" width="8" height="8" fill="#2b2b2b" /><rect x="110" y="113" width="8" height="8" fill="#2b2b2b" /><rect x="166" y="113" width="8" height="8" fill="#3a352e" /><rect x="174" y="113" width="8" height="8" fill="#ffffff" /><rect x="182" y="113" width="8" height="8" fill="#3a352e" /><rect x="54" y="121" width="8" height="8" fill="#3a352e" /><rect x="62" y="121" width="80" height="8" fill="#ffffff" /><rect x="142" y="121" width="8" height="8" fill="#3a352e" /><rect x="78" y="121" width="8" height="8" fill="#e6e1d6" /><rect x="166" y="121" width="8" height="8" fill="#3a352e" /><rect x="174" y="121" width="8" height="8" fill="#ffffff" /><rect x="182" y="121" width="8" height="8" fill="#3a352e" /><rect x="46" y="129" width="8" height="8" fill="#3a352e" /><rect x="54" y="129" width="104" height="8" fill="#ffffff" /><rect x="158" y="129" width="8" height="8" fill="#3a352e" /><rect x="166" y="129" width="8" height="8" fill="#3a352e" /><rect x="174" y="129" width="8" height="8" fill="#ffffff" /><rect x="182" y="129" width="8" height="8" fill="#3a352e" /><rect x="38" y="137" width="8" height="8" fill="#3a352e" /><rect x="46" y="137" width="104" height="8" fill="#ffffff" /><rect x="150" y="137" width="8" height="8" fill="#e6e1d6" /><rect x="158" y="137" width="8" height="8" fill="#3a352e" /><rect x="70" y="137" width="8" height="8" fill="#e6e1d6" /><rect x="118" y="137" width="8" height="8" fill="#e6e1d6" /><rect x="166" y="137" width="8" height="8" fill="#3a352e" /><rect x="174" y="137" width="8" height="8" fill="#ffffff" /><rect x="182" y="137" width="8" height="8" fill="#3a352e" /><rect x="38" y="145" width="8" height="8" fill="#3a352e" /><rect x="46" y="145" width="104" height="8" fill="#ffffff" /><rect x="150" y="145" width="8" height="8" fill="#e6e1d6" /><rect x="158" y="145" width="8" height="8" fill="#3a352e" /><rect x="86" y="145" width="8" height="8" fill="#e6e1d6" /><rect x="102" y="145" width="8" height="8" fill="#e6e1d6" /><rect x="166" y="145" width="8" height="8" fill="#3a352e" /><rect x="174" y="145" width="8" height="8" fill="#ffffff" /><rect x="182" y="145" width="8" height="8" fill="#3a352e" /><rect x="38" y="153" width="8" height="8" fill="#3a352e" /><rect x="46" y="153" width="104" height="8" fill="#ffffff" /><rect x="150" y="153" width="8" height="8" fill="#e6e1d6" /><rect x="158" y="153" width="8" height="8" fill="#3a352e" /><rect x="38" y="161" width="8" height="8" fill="#3a352e" /><rect x="46" y="161" width="24" height="8" fill="#ffffff" /><rect x="70" y="161" width="64" height="8" fill="#6b4f34" /><rect x="134" y="161" width="24" height="8" fill="#ffffff" /><rect x="158" y="161" width="8" height="8" fill="#3a352e" /><rect x="38" y="169" width="8" height="8" fill="#3a352e" /><rect x="46" y="169" width="24" height="8" fill="#ffffff" /><rect x="70" y="169" width="8" height="8" fill="#6b4f34" /><rect x="78" y="169" width="16" height="8" fill="#f5e6c8" /><rect x="94" y="169" width="16" height="8" fill="#4a3b2a" /><rect x="110" y="169" width="16" height="8" fill="#f5e6c8" /><rect x="126" y="169" width="8" height="8" fill="#6b4f34" /><rect x="134" y="169" width="24" height="8" fill="#ffffff" /><rect x="158" y="169" width="8" height="8" fill="#3a352e" /><rect x="38" y="177" width="8" height="8" fill="#3a352e" /><rect x="46" y="177" width="24" height="8" fill="#ffffff" /><rect x="70" y="177" width="8" height="8" fill="#6b4f34" /><rect x="78" y="177" width="16" height="8" fill="#f5e6c8" /><rect x="94" y="177" width="16" height="8" fill="#4a3b2a" /><rect x="110" y="177" width="16" height="8" fill="#f5e6c8" /><rect x="126" y="177" width="8" height="8" fill="#6b4f34" /><rect x="134" y="177" width="24" height="8" fill="#ffffff" /><rect x="158" y="177" width="8" height="8" fill="#3a352e" /><rect x="38" y="185" width="8" height="8" fill="#3a352e" /><rect x="46" y="185" width="8" height="8" fill="#ffffff" /><rect x="54" y="185" width="8" height="8" fill="#3a352e" /><rect x="62" y="185" width="8" height="8" fill="#ffffff" /><rect x="70" y="185" width="64" height="8" fill="#6b4f34" /><rect x="134" y="185" width="8" height="8" fill="#ffffff" /><rect x="142" y="185" width="8" height="8" fill="#3a352e" /><rect x="150" y="185" width="8" height="8" fill="#ffffff" /><rect x="158" y="185" width="8" height="8" fill="#3a352e" /><rect x="46" y="193" width="24" height="8" fill="#3a352e" /><rect x="70" y="193" width="64" height="8" fill="#6b4f34" /><rect x="134" y="193" width="24" height="8" fill="#3a352e" />
    <text x="212" y="32" class="title">awen's GitHub Stats</text>
    
        <text x="212" y="70" class="label">Public repos</text>
        <text x="372" y="70" class="num" text-anchor="end">3</text>
        <text x="387" y="70" class="label">Stars earned</text>
        <text x="547" y="70" class="num" text-anchor="end">2</text>
        <text x="212" y="112" class="label">Forks</text>
        <text x="372" y="112" class="num" text-anchor="end">0</text>
        <text x="387" y="112" class="label">Commits</text>
        <text x="547" y="112" class="num" text-anchor="end">41</text>
        <text x="212" y="154" class="label">Merged PRs</text>
        <text x="372" y="154" class="num" text-anchor="end">10</text>
        <text x="387" y="154" class="label">Contributed to</text>
        <text x="547" y="154" class="num" text-anchor="end">6</text>
</svg>